<svg fill="none" height="24" viewBox="0 0 24 24" width="24" xmlns="http://www.w3.org/2000/svg"><path d="m9 13c-.6 0-1 .4-1 1s.4 1 1 1 1-.4 1-1-.4-1-1-1z" fill="#5b6a78"/><path d="m15 13c-.6 0-1 .4-1 1s.4 1 1 1 1-.4 1-1-.4-1-1-1z" fill="#5b6a78"/><g stroke="#5b6a78"><path d="m2.5 12c0-5.2 4.3-9.5 9.5-9.5s9.5 4.3 9.5 9.5-4.3 9.5-9.5 9.5-9.5-4.3-9.5-9.5z"/><path d="m12 21.5c-1.5 0-3.2-.7-4.4-1.8-1.3-1.2-2.1-2.8-2.1-4.4 0-.2 0-1.3 0-2.4 0-.6 0-1.1 0-1.6 0-.2 0-.3 0-.5.9-.4 1.8-1 2.7-1.7.7-.6 1.3-1.3 1.8-2.1.7.8 1.7 1.5 2.8 2 1.3.7 2.9 1.1 4.2 1.1.5 0 .9-.1 1.3-.1 0 .1 0 .3.1.5v1.8c.1 1.3.1 2.6.1 3 0 1.6-.8 3.2-2.1 4.4-1.2 1.1-2.9 1.8-4.4 1.8z"/></g></svg>