<svg fill="none" height="24" viewBox="0 0 24 24" width="24" xmlns="http://www.w3.org/2000/svg"><path d="m12 2c-5.5 0-10 4.5-10 10s4.5 10 10 10 10-4.5 10-10-4.5-10-10-10z" stroke="#5b6a78"/><path d="m12.9 16.6v1.4h-1.7v-1.4c-1.2-.3-2.1-1.1-2.2-2.6h1.3c.1.8.5 1.4 1.8 1.4s1.5-.7 1.5-1.2c0-.6-.2-1.2-1.7-1.6-1.7-.4-2.8-1.2-2.8-2.7 0-1.3.9-2.2 2.1-2.5v-1.4h1.7v1.5c1.3.3 1.9 1.4 1.9 2.5h-1.3c0-.8-.4-1.4-1.4-1.4s-1.6.5-1.6 1.2.4 1.1 1.7 1.5c1.4.4 2.8 1 2.8 2.9 0 1.4-.9 2.1-2.1 2.4z" fill="#5b6a78"/></svg>