<svg fill="none" height="24" viewBox="0 0 24 24" width="24" xmlns="http://www.w3.org/2000/svg" xmlns:xlink="http://www.w3.org/1999/xlink"><mask id="a" fill="#fff"><path d="m19 9.6h-4v-5.6h-6v5.6h-4l7 6.6zm-14 9.4v1h14v-1z" fill="#fff"/></mask><path d="m15 9.6h-1v1h1zm0-5.6h1v-1h-1zm-6 0v-1h-1v1zm0 5.6v1h1v-1zm-4 0v-1h-2.5l1.8 1.8zm7 6.6-.7.8.7.6.7-.6zm-7 3.8h-1v1h1zm14 0v1h1v-1zm0-1h1v-1h-1zm0-10.4h-4v2h4zm-3 1v-5.6h-2v5.6zm-1-6.6h-6v2h6zm-7 1v5.6h2v-5.6zm1 4.6h-4v2h4zm-4.7 1.8 7 6.6 1.4-1.5-7-6.6zm8.4 6.6 7-6.6-1.4-1.5-7 6.6zm-8.7 2v1h2v-1zm1 2h14v-2h-14zm15-1v-1h-2v1zm-1-2h-14v2h14z" fill="#5d6b78" mask="url(#a)"/></svg>