<svg fill="none" height="34" viewBox="0 0 34 34" width="34" xmlns="http://www.w3.org/2000/svg"><g opacity=".4"><path d="m16.6 33c-8.8-.3-15.8-7.6-15.6-16.4.3-8.8 7.6-15.8 16.4-15.6 8.8.3 15.8 7.6 15.6 16.4-.3 8.8-7.6 15.8-16.4 15.6zm.8-29.3c-7.4-.2-13.5 5.6-13.7 12.9-.2 7.4 5.6 13.5 12.9 13.7 7.4.2 13.5-5.6 13.7-12.9.2-7.4-5.6-13.5-12.9-13.7z" fill="#00d8cb"/><path d="m16.6 33c-8.8-.3-15.8-7.6-15.6-16.4.3-8.8 7.6-15.8 16.4-15.6 8.8.3 15.8 7.6 15.6 16.4-.3 8.8-7.6 15.8-16.4 15.6zm.8-29.3c-7.4-.2-13.5 5.6-13.7 12.9-.2 7.4 5.6 13.5 12.9 13.7 7.4.2 13.5-5.6 13.7-12.9.2-7.4-5.6-13.5-12.9-13.7z" fill="none"/></g><path d="m33 17.4-2.7-.1c.2-7.3-5.6-13.4-12.9-13.6v-2.7c8.8.2 15.8 7.6 15.6 16.4z" fill="#00d8cb"/></svg>