<svg width="151" height="64" viewBox="0 0 151 64" fill="none" xmlns="http://www.w3.org/2000/svg">
<path fill-rule="evenodd" clip-rule="evenodd" d="M11.8883 43.3129C16.342 43.3129 18.0884 41.8234 18.0884 38.2569C18.0884 34.6004 16.2544 33.2012 11.408 33.2012H4.02941V43.3129H11.8883ZM11.321 29.6024C15.4686 29.6024 17.1278 28.293 17.1278 24.9073C17.1278 21.4764 15.425 20.1219 11.2771 20.1219H4.02941V29.6024H11.321ZM0 16.0975H11.4829C17.8575 16.0975 20.9136 18.5803 20.9136 24.0427C20.9136 27.4735 19.7345 29.6404 17.0278 30.6788V30.7687C20.4333 31.8521 21.9175 34.2449 21.9175 38.3077C21.9175 44.086 18.9051 46.7946 12.3559 46.7946H0V16.0975Z" fill="#354656"/>
<path fill-rule="evenodd" clip-rule="evenodd" d="M26.1913 46.0334H30.0335V13.0792H26.1913V46.0334Z" fill="#354656"/>
<path fill-rule="evenodd" clip-rule="evenodd" d="M34.2502 46.4339H38.0924V23.1402H34.2502V46.4339ZM34.2502 18.5094H38.4418V14.0853H34.2502V18.5094Z" fill="#354656"/>
<path fill-rule="evenodd" clip-rule="evenodd" d="M42.3091 22.6758H45.5837L45.7146 26.3322C47.6791 23.4431 50.0804 22.134 53.2244 22.134C57.9396 22.134 60.2972 25.0679 60.2972 30.6657V45.9694H56.455V31.0269C56.455 27.3702 55.1453 25.7905 52.4819 25.7905C49.8189 25.7905 47.7667 27.4156 46.1513 30.8465V45.9694H42.3091V22.6758Z" fill="#354656"/>
<path fill-rule="evenodd" clip-rule="evenodd" d="M63.4636 13.0792H67.3058V34.206L77.6968 22.7398H82.4996L73.8546 32.2199L82.6741 46.0334H78.0899L71.1913 35.109L67.3058 39.3071V46.0334H63.4636V13.0792Z" fill="#354656"/>
<path fill-rule="evenodd" clip-rule="evenodd" d="M82.6035 39.1078H86.2711C86.2711 41.7709 88.1051 43.1254 91.8596 43.1254C95.3524 43.1254 97.0991 41.9066 97.0991 39.6943C97.0991 37.392 95.5706 36.3991 91.2048 35.8574C85.3105 35.1352 83.1274 33.3295 83.1274 29.1762C83.1274 24.6622 86.2275 22.134 91.816 22.134C97.4046 22.134 100.373 24.6168 100.373 29.3115H96.6188C96.6188 26.8288 95.0033 25.5198 91.7724 25.5198C88.6287 25.5198 86.8823 26.7386 86.8823 28.86C86.8823 30.9818 88.4105 31.8397 92.5581 32.2912C98.5834 32.9683 100.854 34.9544 100.854 39.3785C100.854 44.0732 97.7976 46.5108 91.8596 46.5108C85.6599 46.5108 82.6035 44.0281 82.6035 39.1078Z" fill="#354656"/>
<path fill-rule="evenodd" clip-rule="evenodd" d="M102.751 39.3785C102.751 34.7288 105.72 32.1107 112.05 32.1107H117.464V30.8465C117.464 27.2352 115.849 25.5649 112.356 25.5649C109.169 25.5649 107.292 26.919 107.16 29.763H103.406C103.799 24.7073 106.855 22.134 112.487 22.134C118.425 22.134 121.307 24.978 121.307 30.7562V45.9694H118.032L117.901 42.8093C116.067 45.2021 113.535 46.5108 110.26 46.5108C105.632 46.5108 102.751 43.9379 102.751 39.3785ZM117.652 38.5089V35.2134H112.369C108.439 35.2134 106.78 36.4776 106.78 39.0957C106.78 41.5333 108.177 42.8878 111.015 42.8878C114.028 42.8878 116.298 41.3528 117.652 38.5089Z" fill="#354656"/>
<path fill-rule="evenodd" clip-rule="evenodd" d="M124.912 46.0334H128.755V13.0792H124.912V46.0334Z" fill="#354656"/>
<path fill-rule="evenodd" clip-rule="evenodd" d="M147.476 31.6979C147.476 27.2287 145.686 25.1523 141.757 25.1523C137.784 25.1523 135.993 27.2287 135.993 31.6979H147.476ZM131.964 36.6247V32.0202C131.964 25.61 135.326 22.134 141.482 22.134C147.638 22.134 151 25.61 151 32.0202V35.4059H135.806V36.4442C135.806 41.0036 137.64 43.0803 141.657 43.0803C145.062 43.0803 146.852 41.5454 147.115 39.0175H150.825C150.52 43.9833 147.158 46.5112 141.744 46.5112C135.413 46.5112 131.964 43.0349 131.964 36.6247Z" fill="#354656"/>
<path fill-rule="evenodd" clip-rule="evenodd" d="M119.259 64C129.995 64 138.652 59.0359 139.016 58.8247L138.217 57.3488C138.132 57.3982 129.554 62.3077 119.259 62.3077C109.012 62.3077 100.384 57.3968 100.298 57.3474L99.5044 58.8261C99.8704 59.0373 108.592 64 119.259 64Z" fill="#00D8CB"/>
<path fill-rule="evenodd" clip-rule="evenodd" d="M17.9192 6.65257L17.1251 5.17388C17.4911 4.96269 26.2127 0 36.8796 0C47.616 0 56.2732 4.96404 56.6363 5.17524L55.8377 6.65121C55.7525 6.6018 47.1749 1.69225 36.8796 1.69225C26.6326 1.69225 18.005 6.60315 17.9192 6.65257Z" fill="#00D8CB"/>
</svg>
